@startuml
class NymphsCoordinator <<Static>>{
- m_nymphsAlive: Nymph

+ Reset()
+ RegisterNymph()
+ DoInitialCoordination()
- OnNymphDied()
}
NymphsCoordinator ..> Nymph : Has-Many
Nymph ..> NymphsCoordinator : Registers

class NymphEnemyFactory{

}
NymphEnemyFactory ..> NymphsCoordinator: Resets when first nymph spawns

class BaseEnemy
Nymph --|> BaseEnemy

class Nymph{
- m_lastNymphAction: LastNymphAliveAction

+ SetDoesCastTwice(bool)
+ SetLastNymphAlive(bool)
}

class LastNymphAliveAction{
- m_data: LastNymphAliveMoveData <<serializable>>

+ Execute()
}
Nymph ..> LastNymphAliveAction : Has-A

class Nymph_1
class Nymph_2
class Nymph_3
class Nymph_4

Nymph_1 --|> Nymph
Nymph_2 --|> Nymph
Nymph_3 --|> Nymph
Nymph_4 --|> Nymph
@enduml